<mxfile host="app.diagrams.net" modified="2024-02-26T14:52:50.627Z" agent="Mozilla/5.0 (X11; Linux x86_64) AppleWebKit/537.36 (KHTML, like Gecko) Chrome/121.0.0.0 Safari/537.36" etag="tVKYSFvjEf-Tu-v_k42j" version="23.1.5" type="github">
  <diagram name="Page-1" id="nwx_RcULXlJFRKygGVwv">
    <mxGraphModel dx="880" dy="401" grid="1" gridSize="10" guides="1" tooltips="1" connect="1" arrows="1" fold="1" page="1" pageScale="1" pageWidth="850" pageHeight="1100" math="0" shadow="0">
      <root>
        <mxCell id="0" />
        <mxCell id="1" parent="0" />
        <mxCell id="j-wQQpI6TNDpSJFwCERF-1" value="" style="endArrow=classic;html=1;rounded=0;" edge="1" parent="1">
          <mxGeometry width="50" height="50" relative="1" as="geometry">
            <mxPoint x="120" y="80" as="sourcePoint" />
            <mxPoint x="840" y="80" as="targetPoint" />
          </mxGeometry>
        </mxCell>
        <mxCell id="j-wQQpI6TNDpSJFwCERF-3" value="Production Branch" style="text;html=1;align=center;verticalAlign=middle;whiteSpace=wrap;rounded=0;" vertex="1" parent="1">
          <mxGeometry x="120" y="50" width="130" height="30" as="geometry" />
        </mxCell>
        <mxCell id="j-wQQpI6TNDpSJFwCERF-4" value="" style="endArrow=classic;html=1;rounded=0;" edge="1" parent="1">
          <mxGeometry width="50" height="50" relative="1" as="geometry">
            <mxPoint x="120" y="140" as="sourcePoint" />
            <mxPoint x="690" y="140" as="targetPoint" />
          </mxGeometry>
        </mxCell>
        <mxCell id="j-wQQpI6TNDpSJFwCERF-5" value="Staging / Pre-Production Branch" style="text;html=1;align=center;verticalAlign=middle;whiteSpace=wrap;rounded=0;" vertex="1" parent="1">
          <mxGeometry x="120" y="110" width="190" height="30" as="geometry" />
        </mxCell>
        <mxCell id="j-wQQpI6TNDpSJFwCERF-6" value="" style="endArrow=classic;html=1;rounded=0;" edge="1" parent="1">
          <mxGeometry width="50" height="50" relative="1" as="geometry">
            <mxPoint x="100" y="360" as="sourcePoint" />
            <mxPoint x="100" y="40" as="targetPoint" />
          </mxGeometry>
        </mxCell>
        <mxCell id="j-wQQpI6TNDpSJFwCERF-11" value="" style="ellipse;whiteSpace=wrap;html=1;aspect=fixed;" vertex="1" parent="1">
          <mxGeometry x="296" y="272" width="16" height="16" as="geometry" />
        </mxCell>
        <mxCell id="j-wQQpI6TNDpSJFwCERF-13" value="" style="endArrow=classic;html=1;rounded=0;exitX=1;exitY=0.5;exitDx=0;exitDy=0;" edge="1" parent="1" target="j-wQQpI6TNDpSJFwCERF-14">
          <mxGeometry width="50" height="50" relative="1" as="geometry">
            <mxPoint x="312" y="281" as="sourcePoint" />
            <mxPoint x="436" y="281" as="targetPoint" />
          </mxGeometry>
        </mxCell>
        <mxCell id="j-wQQpI6TNDpSJFwCERF-14" value="" style="ellipse;whiteSpace=wrap;html=1;aspect=fixed;" vertex="1" parent="1">
          <mxGeometry x="396" y="272" width="18" height="18" as="geometry" />
        </mxCell>
        <mxCell id="j-wQQpI6TNDpSJFwCERF-15" value="" style="endArrow=classic;html=1;rounded=0;exitX=1;exitY=0.5;exitDx=0;exitDy=0;" edge="1" parent="1" source="j-wQQpI6TNDpSJFwCERF-14">
          <mxGeometry width="50" height="50" relative="1" as="geometry">
            <mxPoint x="417" y="283.5" as="sourcePoint" />
            <mxPoint x="480" y="280" as="targetPoint" />
          </mxGeometry>
        </mxCell>
        <mxCell id="j-wQQpI6TNDpSJFwCERF-16" value="" style="shape=image;html=1;verticalAlign=top;verticalLabelPosition=bottom;labelBackgroundColor=#ffffff;imageAspect=0;aspect=fixed;image=https://cdn4.iconfinder.com/data/icons/socialcones/508/Gitlab-128.png" vertex="1" parent="1">
          <mxGeometry x="480" y="246" width="70" height="70" as="geometry" />
        </mxCell>
        <mxCell id="j-wQQpI6TNDpSJFwCERF-17" value="" style="shadow=0;dashed=0;html=1;strokeColor=none;fillColor=#4495D1;labelPosition=center;verticalLabelPosition=bottom;verticalAlign=top;align=center;outlineConnect=0;shape=mxgraph.veeam.automated_testing;" vertex="1" parent="1">
          <mxGeometry x="620" y="258.6" width="44.8" height="44.8" as="geometry" />
        </mxCell>
        <mxCell id="j-wQQpI6TNDpSJFwCERF-18" value="" style="endArrow=classic;html=1;rounded=0;" edge="1" parent="1" source="j-wQQpI6TNDpSJFwCERF-16">
          <mxGeometry width="50" height="50" relative="1" as="geometry">
            <mxPoint x="596" y="282" as="sourcePoint" />
            <mxPoint x="620" y="280" as="targetPoint" />
          </mxGeometry>
        </mxCell>
        <mxCell id="j-wQQpI6TNDpSJFwCERF-19" value="" style="endArrow=classic;html=1;rounded=0;" edge="1" parent="1" target="j-wQQpI6TNDpSJFwCERF-20">
          <mxGeometry width="50" height="50" relative="1" as="geometry">
            <mxPoint x="120" y="200" as="sourcePoint" />
            <mxPoint x="200" y="200" as="targetPoint" />
          </mxGeometry>
        </mxCell>
        <mxCell id="j-wQQpI6TNDpSJFwCERF-20" value="" style="ellipse;whiteSpace=wrap;html=1;aspect=fixed;" vertex="1" parent="1">
          <mxGeometry x="200" y="191" width="20" height="20" as="geometry" />
        </mxCell>
        <mxCell id="j-wQQpI6TNDpSJFwCERF-21" value="" style="endArrow=classic;html=1;rounded=0;exitX=0.5;exitY=1;exitDx=0;exitDy=0;entryX=0;entryY=0.5;entryDx=0;entryDy=0;" edge="1" parent="1" source="j-wQQpI6TNDpSJFwCERF-20" target="j-wQQpI6TNDpSJFwCERF-11">
          <mxGeometry width="50" height="50" relative="1" as="geometry">
            <mxPoint x="400" y="240" as="sourcePoint" />
            <mxPoint x="210" y="280" as="targetPoint" />
            <Array as="points">
              <mxPoint x="210" y="280" />
            </Array>
          </mxGeometry>
        </mxCell>
        <mxCell id="j-wQQpI6TNDpSJFwCERF-22" value="" style="endArrow=classic;html=1;rounded=0;exitX=1;exitY=0.5;exitDx=0;exitDy=0;" edge="1" parent="1" source="j-wQQpI6TNDpSJFwCERF-20" target="j-wQQpI6TNDpSJFwCERF-23">
          <mxGeometry width="50" height="50" relative="1" as="geometry">
            <mxPoint x="400" y="240" as="sourcePoint" />
            <mxPoint x="680" y="200" as="targetPoint" />
          </mxGeometry>
        </mxCell>
        <mxCell id="j-wQQpI6TNDpSJFwCERF-23" value="" style="ellipse;whiteSpace=wrap;html=1;aspect=fixed;" vertex="1" parent="1">
          <mxGeometry x="680" y="191" width="20" height="20" as="geometry" />
        </mxCell>
        <mxCell id="j-wQQpI6TNDpSJFwCERF-24" value="" style="endArrow=classic;html=1;rounded=0;exitX=1.138;exitY=0.433;exitDx=0;exitDy=0;exitPerimeter=0;entryX=0.5;entryY=1;entryDx=0;entryDy=0;" edge="1" parent="1" source="j-wQQpI6TNDpSJFwCERF-17" target="j-wQQpI6TNDpSJFwCERF-23">
          <mxGeometry width="50" height="50" relative="1" as="geometry">
            <mxPoint x="400" y="240" as="sourcePoint" />
            <mxPoint x="450" y="190" as="targetPoint" />
            <Array as="points">
              <mxPoint x="690" y="278" />
            </Array>
          </mxGeometry>
        </mxCell>
        <mxCell id="j-wQQpI6TNDpSJFwCERF-25" value="" style="endArrow=classic;html=1;rounded=0;exitX=1;exitY=0.5;exitDx=0;exitDy=0;" edge="1" parent="1" source="j-wQQpI6TNDpSJFwCERF-23">
          <mxGeometry width="50" height="50" relative="1" as="geometry">
            <mxPoint x="740" y="211" as="sourcePoint" />
            <mxPoint x="790" y="201" as="targetPoint" />
          </mxGeometry>
        </mxCell>
        <mxCell id="j-wQQpI6TNDpSJFwCERF-26" value="" style="endArrow=classic;html=1;rounded=0;" edge="1" parent="1">
          <mxGeometry width="50" height="50" relative="1" as="geometry">
            <mxPoint x="690" y="190" as="sourcePoint" />
            <mxPoint x="690" y="140" as="targetPoint" />
          </mxGeometry>
        </mxCell>
        <mxCell id="j-wQQpI6TNDpSJFwCERF-27" value="Main" style="text;html=1;align=center;verticalAlign=middle;whiteSpace=wrap;rounded=0;" vertex="1" parent="1">
          <mxGeometry x="410" y="170" width="60" height="30" as="geometry" />
        </mxCell>
        <mxCell id="j-wQQpI6TNDpSJFwCERF-28" value="" style="endArrow=classic;html=1;rounded=0;" edge="1" parent="1">
          <mxGeometry width="50" height="50" relative="1" as="geometry">
            <mxPoint x="120" y="352" as="sourcePoint" />
            <mxPoint x="830" y="350" as="targetPoint" />
            <Array as="points">
              <mxPoint x="480" y="352" />
            </Array>
          </mxGeometry>
        </mxCell>
        <mxCell id="j-wQQpI6TNDpSJFwCERF-29" value="Time" style="text;html=1;align=center;verticalAlign=middle;whiteSpace=wrap;rounded=0;" vertex="1" parent="1">
          <mxGeometry x="414" y="360" width="60" height="30" as="geometry" />
        </mxCell>
        <mxCell id="j-wQQpI6TNDpSJFwCERF-30" value="Text" style="text;html=1;align=center;verticalAlign=middle;whiteSpace=wrap;rounded=0;" vertex="1" parent="1">
          <mxGeometry x="540" y="211" width="60" height="30" as="geometry" />
        </mxCell>
        <mxCell id="j-wQQpI6TNDpSJFwCERF-31" value="Scope of Testing" style="text;html=1;align=center;verticalAlign=middle;whiteSpace=wrap;rounded=0;" vertex="1" parent="1">
          <mxGeometry x="20" y="170" width="60" height="30" as="geometry" />
        </mxCell>
        <mxCell id="j-wQQpI6TNDpSJFwCERF-32" value="Fast Forward Mrege" style="text;html=1;align=center;verticalAlign=middle;whiteSpace=wrap;rounded=0;" vertex="1" parent="1">
          <mxGeometry x="690" y="140" width="140" height="30" as="geometry" />
        </mxCell>
        <mxCell id="j-wQQpI6TNDpSJFwCERF-33" value="Narrow" style="text;html=1;align=center;verticalAlign=middle;whiteSpace=wrap;rounded=0;" vertex="1" parent="1">
          <mxGeometry x="20" y="330" width="60" height="30" as="geometry" />
        </mxCell>
        <mxCell id="j-wQQpI6TNDpSJFwCERF-34" value="Broad" style="text;html=1;align=center;verticalAlign=middle;whiteSpace=wrap;rounded=0;" vertex="1" parent="1">
          <mxGeometry x="20" y="30" width="60" height="30" as="geometry" />
        </mxCell>
        <mxCell id="j-wQQpI6TNDpSJFwCERF-36" value="" style="endArrow=classic;html=1;rounded=0;" edge="1" parent="1">
          <mxGeometry width="50" height="50" relative="1" as="geometry">
            <mxPoint x="690" y="140" as="sourcePoint" />
            <mxPoint x="840" y="140" as="targetPoint" />
          </mxGeometry>
        </mxCell>
        <mxCell id="j-wQQpI6TNDpSJFwCERF-37" value="Git Commit" style="text;html=1;align=center;verticalAlign=middle;whiteSpace=wrap;rounded=0;" vertex="1" parent="1">
          <mxGeometry x="200" y="161" width="60" height="30" as="geometry" />
        </mxCell>
        <mxCell id="j-wQQpI6TNDpSJFwCERF-38" value="Feature Branch" style="text;html=1;align=center;verticalAlign=middle;whiteSpace=wrap;rounded=0;" vertex="1" parent="1">
          <mxGeometry x="210" y="288" width="120" height="30" as="geometry" />
        </mxCell>
        <mxCell id="j-wQQpI6TNDpSJFwCERF-39" value="Merge Request" style="text;html=1;align=center;verticalAlign=middle;whiteSpace=wrap;rounded=0;" vertex="1" parent="1">
          <mxGeometry x="480" y="300" width="60" height="30" as="geometry" />
        </mxCell>
        <mxCell id="j-wQQpI6TNDpSJFwCERF-40" value="Automated Testing" style="text;html=1;align=center;verticalAlign=middle;whiteSpace=wrap;rounded=0;" vertex="1" parent="1">
          <mxGeometry x="612.4" y="310" width="60" height="30" as="geometry" />
        </mxCell>
        <mxCell id="j-wQQpI6TNDpSJFwCERF-41" value="Merge Request" style="text;html=1;align=center;verticalAlign=middle;whiteSpace=wrap;rounded=0;" vertex="1" parent="1">
          <mxGeometry x="680" y="170" width="120" height="30" as="geometry" />
        </mxCell>
      </root>
    </mxGraphModel>
  </diagram>
</mxfile>
